<svg width="397" height="66" viewBox="0 0 397 66" fill="none" xmlns="http://www.w3.org/2000/svg">
<g clip-path="url(#clip0_402_38)">
<path d="M0 52.2802L2.46 42.9402C2.46 42.9402 5.15 64.5302 27.28 64.5302C38.98 64.5302 52.33 60.0202 52.33 47.2702C52.33 26.5502 2.78 38.6202 2.78 15.4802C2.78 1.18016 23.09 0.410156 27.33 0.410156C40.95 0.410156 49.28 5.74016 49.28 5.74016L51.1 14.6702C51.1 14.6702 42.08 1.60016 27.33 1.60016C22.82 1.60016 7.75 2.42016 7.75 15.6302C7.75 34.3002 57.8 22.5502 57.8 47.1902C57.8 61.2602 45.05 65.6302 27.24 65.7302C9.43 65.7602 1.96 57.5202 0 52.2802Z" fill="#ECF0F6"/>
<path d="M161.21 0.459961C161.21 0.459961 157.02 0.639961 157.02 7.60996V45.77C157.02 59.98 147.41 65.72 135.8 65.72C123.23 65.72 110.29 61.17 110.25 45.68C110.11 4.59996 110.25 13.39 110.25 7.60996C110.25 2.14996 96.68 1.63996 93.85 1.63996H90.75C90.02 1.63996 86.61 1.99996 86.61 7.60996V58.62C86.61 65.54 90.8 65.72 90.8 65.72H78.19C78.19 65.72 82.38 65.58 82.38 58.48V7.69996C82.38 1.63996 78.87 1.59996 78.19 1.59996H76.46C61.34 1.59996 57.79 9.24996 57.79 9.24996L59.75 0.459961H114.54V7.69996V45.55C114.54 59.39 122.65 64.59 135.95 64.59C146.93 64.59 155.26 58.21 155.26 45.78C155.26 45.78 155.21 13.26 155.21 7.70996C155.21 0.609961 151.02 0.469961 151.02 0.469961H161.21V0.459961Z" fill="#ECF0F6"/>
<path d="M169.94 58.4298V7.64976C169.94 0.549762 165.75 0.449762 165.75 0.449762L188.93 0.399762C197.58 0.359762 205.92 3.76976 212.07 9.86976C218.22 15.9698 221.68 24.2598 221.68 32.9198C221.68 50.9998 207.01 65.6598 188.94 65.6598H165.76C165.75 65.6698 169.94 65.5398 169.94 58.4298ZM174.23 58.5698C174.23 64.3498 177.64 64.5398 178.37 64.5398H188.94C204.24 64.5398 216.72 50.4198 216.72 33.0698C216.72 15.6698 204.24 1.54976 188.94 1.54976H178.37C177.73 1.54976 174.23 1.72976 174.23 7.32976V58.5698Z" fill="#ECF0F6"/>
<path d="M230.42 58.4302V7.6502C230.42 0.550196 226.23 0.450195 226.23 0.450195H238.89C238.89 0.450195 234.7 0.590196 234.7 7.5502V58.5602C234.7 65.4802 238.89 65.6602 238.89 65.6602H226.23C226.23 65.6702 230.42 65.5402 230.42 58.4302Z" fill="#ECF0F6"/>
<path d="M243.44 32.74C243.49 14.66 258.1 0.04 276.18 0C294.31 0.04 308.93 14.66 308.97 32.74C308.92 50.82 294.31 65.48 276.18 65.48C258.1 65.49 243.49 50.83 243.44 32.74ZM248.45 32.88C248.45 50.23 260.88 64.35 276.18 64.35C291.53 64.35 303.96 50.23 303.96 32.88C303.96 15.48 291.53 1.36 276.18 1.36C260.88 1.37 248.45 15.48 248.45 32.88Z" fill="#ECF0F6"/>
<path d="M346.22 39.75C351.03 39.75 354.19 38.31 354.85 36.71L355.74 44.46H322.98C322.98 35.05 331.89 29.47 339.08 23.88C343.95 20.12 347.99 16.3 347.99 11.37C347.99 5.94998 343.73 2.84998 339.14 2.84998C332.44 2.84998 328.02 8.32998 328.02 14.91L325.03 16.51C325.03 7.48998 331.78 2.22998 340.25 2.22998C348 2.22998 355.8 6.87998 355.8 14.46C355.85 21.32 349.1 25.36 343.68 28.07C335.93 31.94 326.86 34.88 324.48 39.74H346.22V39.75Z" fill="#ECF0F6"/>
<path d="M376.38 45.28C367.86 45.28 361.22 40.14 361.16 31.06L364.15 32.66C364.15 40.41 369.24 44.45 374.55 44.45C389.88 44.45 389.82 13.19 372.84 20.16V19.17L386.51 7.83H371.46C366.65 7.83 363.49 9.21 362.83 10.82L361.94 3L393.59 3.06V3.61L373.84 19.21C397.74 9.64 403.61 45.22 376.38 45.28Z" fill="#ECF0F6"/>
<path d="M395.81 59.0098H321.58V59.2598H395.81V59.0098Z" fill="#ECF0F6"/>
<path d="M395.81 59.0098H321.58V59.2598H395.81V59.0098Z" stroke="#ECF0F6" stroke-width="0.5" stroke-miterlimit="10"/>
</g>
<defs>
<clipPath id="clip0_402_38">
<rect width="396.06" height="65.72" fill="white"/>
</clipPath>
</defs>
</svg>
