<svg width="652" height="96" viewBox="0 0 652 96" fill="none" xmlns="http://www.w3.org/2000/svg">
<path d="M26.088 76.768C21.224 76.768 16.84 75.68 12.936 73.504C9.032 71.264 5.928 68.16 3.624 64.192C1.384 60.224 0.264 55.552 0.264 50.176C0.264 44.736 1.384 40.032 3.624 36.064C5.928 32.096 9.032 29.024 12.936 26.848C16.84 24.672 21.224 23.584 26.088 23.584C30.44 23.584 34.248 24.544 37.512 26.464C40.776 28.384 43.304 31.296 45.096 35.2C46.888 39.104 47.784 44.096 47.784 50.176C47.784 56.192 46.92 61.184 45.192 65.152C43.464 69.056 40.968 71.968 37.704 73.888C34.504 75.808 30.632 76.768 26.088 76.768ZM28.68 64.48C31.112 64.48 33.32 63.904 35.304 62.752C37.288 61.6 38.856 59.968 40.008 57.856C41.224 55.68 41.832 53.12 41.832 50.176C41.832 47.168 41.224 44.608 40.008 42.496C38.856 40.384 37.288 38.752 35.304 37.6C33.32 36.448 31.112 35.872 28.68 35.872C26.184 35.872 23.944 36.448 21.96 37.6C19.976 38.752 18.376 40.384 17.16 42.496C16.008 44.608 15.432 47.168 15.432 50.176C15.432 53.12 16.008 55.68 17.16 57.856C18.376 59.968 19.976 61.6 21.96 62.752C23.944 63.904 26.184 64.48 28.68 64.48ZM42.216 76V65.44L42.504 50.08L41.544 34.816V4.768H56.52V76H42.216ZM125.293 76.768C119.405 76.768 114.221 75.616 109.741 73.312C105.325 71.008 101.901 67.872 99.4687 63.904C97.0367 59.872 95.8207 55.296 95.8207 50.176C95.8207 44.992 97.0047 40.416 99.3727 36.448C101.805 32.416 105.101 29.28 109.261 27.04C113.421 24.736 118.125 23.584 123.373 23.584C128.429 23.584 132.973 24.672 137.005 26.848C141.101 28.96 144.333 32.032 146.701 36.064C149.069 40.032 150.253 44.8 150.253 50.368C150.253 50.944 150.221 51.616 150.157 52.384C150.093 53.088 150.029 53.76 149.965 54.4H108.013V45.664H142.093L136.333 48.256C136.333 45.568 135.789 43.232 134.701 41.248C133.613 39.264 132.109 37.728 130.189 36.64C128.269 35.488 126.029 34.912 123.469 34.912C120.909 34.912 118.637 35.488 116.653 36.64C114.733 37.728 113.229 39.296 112.141 41.344C111.053 43.328 110.509 45.696 110.509 48.448V50.752C110.509 53.568 111.117 56.064 112.333 58.24C113.613 60.352 115.373 61.984 117.613 63.136C119.917 64.224 122.605 64.768 125.677 64.768C128.429 64.768 130.829 64.352 132.877 63.52C134.989 62.688 136.909 61.44 138.637 59.776L146.605 68.416C144.237 71.104 141.261 73.184 137.677 74.656C134.093 76.064 129.965 76.768 125.293 76.768ZM206.879 76.768C202.463 76.768 198.207 76.256 194.111 75.232C190.079 74.144 186.879 72.8 184.511 71.2L189.503 60.448C191.871 61.92 194.655 63.136 197.855 64.096C201.119 64.992 204.319 65.44 207.455 65.44C210.911 65.44 213.343 65.024 214.751 64.192C216.223 63.36 216.959 62.208 216.959 60.736C216.959 59.52 216.383 58.624 215.231 58.048C214.143 57.408 212.671 56.928 210.815 56.608C208.959 56.288 206.911 55.968 204.671 55.648C202.495 55.328 200.287 54.912 198.047 54.4C195.807 53.824 193.759 52.992 191.903 51.904C190.047 50.816 188.543 49.344 187.391 47.488C186.303 45.632 185.759 43.232 185.759 40.288C185.759 37.024 186.687 34.144 188.543 31.648C190.463 29.152 193.215 27.2 196.799 25.792C200.383 24.32 204.671 23.584 209.663 23.584C213.183 23.584 216.767 23.968 220.415 24.736C224.063 25.504 227.103 26.624 229.535 28.096L224.543 38.752C222.047 37.28 219.519 36.288 216.959 35.776C214.463 35.2 212.031 34.912 209.663 34.912C206.335 34.912 203.903 35.36 202.367 36.256C200.831 37.152 200.063 38.304 200.063 39.712C200.063 40.992 200.607 41.952 201.695 42.592C202.847 43.232 204.351 43.744 206.207 44.128C208.063 44.512 210.079 44.864 212.255 45.184C214.495 45.44 216.735 45.856 218.975 46.432C221.215 47.008 223.231 47.84 225.023 48.928C226.879 49.952 228.383 51.392 229.535 53.248C230.687 55.04 231.263 57.408 231.263 60.352C231.263 63.552 230.303 66.4 228.383 68.896C226.463 71.328 223.679 73.248 220.031 74.656C216.447 76.064 212.063 76.768 206.879 76.768ZM269.783 76V24.352H284.759V76H269.783ZM277.271 17.152C274.519 17.152 272.279 16.352 270.551 14.752C268.823 13.152 267.959 11.168 267.959 8.8C267.959 6.432 268.823 4.448 270.551 2.848C272.279 1.248 274.519 0.447994 277.271 0.447994C280.023 0.447994 282.263 1.216 283.991 2.752C285.719 4.224 286.583 6.144 286.583 8.512C286.583 11.008 285.719 13.088 283.991 14.752C282.327 16.352 280.087 17.152 277.271 17.152ZM352.226 95.392C347.362 95.392 342.658 94.784 338.114 93.568C333.634 92.416 329.89 90.656 326.882 88.288L332.834 77.536C335.01 79.328 337.762 80.736 341.09 81.76C344.482 82.848 347.81 83.392 351.074 83.392C356.386 83.392 360.226 82.208 362.594 79.84C365.026 77.472 366.242 73.952 366.242 69.28V61.504L367.202 48.544L367.01 35.488V24.352H381.218V67.36C381.218 76.96 378.722 84.032 373.73 88.576C368.738 93.12 361.57 95.392 352.226 95.392ZM349.922 73.504C345.122 73.504 340.77 72.48 336.866 70.432C333.026 68.32 329.922 65.408 327.554 61.696C325.25 57.92 324.098 53.536 324.098 48.544C324.098 43.488 325.25 39.104 327.554 35.392C329.922 31.616 333.026 28.704 336.866 26.656C340.77 24.608 345.122 23.584 349.922 23.584C354.274 23.584 358.114 24.48 361.442 26.272C364.77 28 367.362 30.72 369.218 34.432C371.074 38.08 372.002 42.784 372.002 48.544C372.002 54.24 371.074 58.944 369.218 62.656C367.362 66.304 364.77 69.024 361.442 70.816C358.114 72.608 354.274 73.504 349.922 73.504ZM352.898 61.216C355.522 61.216 357.858 60.704 359.906 59.68C361.954 58.592 363.554 57.088 364.706 55.168C365.858 53.248 366.434 51.04 366.434 48.544C366.434 45.984 365.858 43.776 364.706 41.92C363.554 40 361.954 38.528 359.906 37.504C357.858 36.416 355.522 35.872 352.898 35.872C350.274 35.872 347.938 36.416 345.89 37.504C343.842 38.528 342.21 40 340.994 41.92C339.842 43.776 339.266 45.984 339.266 48.544C339.266 51.04 339.842 53.248 340.994 55.168C342.21 57.088 343.842 58.592 345.89 59.68C347.938 60.704 350.274 61.216 352.898 61.216ZM455.829 23.584C459.925 23.584 463.573 24.416 466.773 26.08C470.037 27.68 472.597 30.176 474.453 33.568C476.309 36.896 477.237 41.184 477.237 46.432V76H462.261V48.736C462.261 44.576 461.333 41.504 459.477 39.52C457.685 37.536 455.125 36.544 451.797 36.544C449.429 36.544 447.285 37.056 445.365 38.08C443.509 39.04 442.037 40.544 440.949 42.592C439.925 44.64 439.413 47.264 439.413 50.464V76H424.437V24.352H438.741V38.656L436.053 34.336C437.909 30.88 440.565 28.224 444.021 26.368C447.477 24.512 451.413 23.584 455.829 23.584Z" fill="white"/>
<path d="M545.724 76.768C539.836 76.768 534.652 75.616 530.172 73.312C525.756 71.008 522.332 67.872 519.9 63.904C517.468 59.872 516.252 55.296 516.252 50.176C516.252 44.992 517.436 40.416 519.804 36.448C522.236 32.416 525.532 29.28 529.692 27.04C533.852 24.736 538.556 23.584 543.804 23.584C548.86 23.584 553.404 24.672 557.436 26.848C561.532 28.96 564.764 32.032 567.132 36.064C569.5 40.032 570.684 44.8 570.684 50.368C570.684 50.944 570.652 51.616 570.588 52.384C570.524 53.088 570.46 53.76 570.396 54.4H528.444V45.664H562.524L556.764 48.256C556.764 45.568 556.22 43.232 555.132 41.248C554.044 39.264 552.54 37.728 550.62 36.64C548.7 35.488 546.46 34.912 543.9 34.912C541.34 34.912 539.068 35.488 537.084 36.64C535.164 37.728 533.66 39.296 532.572 41.344C531.484 43.328 530.94 45.696 530.94 48.448V50.752C530.94 53.568 531.548 56.064 532.764 58.24C534.044 60.352 535.804 61.984 538.044 63.136C540.348 64.224 543.036 64.768 546.108 64.768C548.86 64.768 551.26 64.352 553.308 63.52C555.42 62.688 557.34 61.44 559.068 59.776L567.036 68.416C564.668 71.104 561.692 73.184 558.108 74.656C554.524 76.064 550.396 76.768 545.724 76.768Z" fill="#0386FF"/>
<path d="M627.311 76.768C622.895 76.768 618.639 76.256 614.543 75.232C610.511 74.144 607.311 72.8 604.943 71.2L609.935 60.448C612.303 61.92 615.087 63.136 618.287 64.096C621.551 64.992 624.751 65.44 627.887 65.44C631.343 65.44 633.775 65.024 635.183 64.192C636.655 63.36 637.391 62.208 637.391 60.736C637.391 59.52 636.815 58.624 635.663 58.048C634.575 57.408 633.103 56.928 631.247 56.608C629.391 56.288 627.343 55.968 625.103 55.648C622.927 55.328 620.719 54.912 618.479 54.4C616.239 53.824 614.191 52.992 612.335 51.904C610.479 50.816 608.975 49.344 607.823 47.488C606.735 45.632 606.191 43.232 606.191 40.288C606.191 37.024 607.119 34.144 608.975 31.648C610.895 29.152 613.647 27.2 617.231 25.792C620.815 24.32 625.103 23.584 630.095 23.584C633.615 23.584 637.199 23.968 640.847 24.736C644.495 25.504 647.535 26.624 649.967 28.096L644.975 38.752C642.479 37.28 639.951 36.288 637.391 35.776C634.895 35.2 632.463 34.912 630.095 34.912C626.767 34.912 624.335 35.36 622.799 36.256C621.263 37.152 620.495 38.304 620.495 39.712C620.495 40.992 621.039 41.952 622.127 42.592C623.279 43.232 624.783 43.744 626.639 44.128C628.495 44.512 630.511 44.864 632.687 45.184C634.927 45.44 637.167 45.856 639.407 46.432C641.647 47.008 643.663 47.84 645.455 48.928C647.311 49.952 648.815 51.392 649.967 53.248C651.119 55.04 651.695 57.408 651.695 60.352C651.695 63.552 650.735 66.4 648.815 68.896C646.895 71.328 644.111 73.248 640.463 74.656C636.879 76.064 632.495 76.768 627.311 76.768Z" fill="#FFB800"/>
</svg>
